<?xml version="1.0" standalone="no"?><svg xmlns="http://www.w3.org/2000/svg" viewBox="0 0 1440 320"><path fill="#2e8b57" fill-opacity="1" d="M0,128L20,149.3C40,171,80,213,120,218.7C160,224,200,192,240,160C280,128,320,96,360,74.7C400,53,440,43,480,80C520,117,560,203,600,197.3C640,192,680,96,720,90.7C760,85,800,171,840,186.7C880,203,920,149,960,133.3C1000,117,1040,139,1080,144C1120,149,1160,139,1200,154.7C1240,171,1280,213,1320,218.7C1360,224,1400,192,1420,176L1440,160L1440,0L1420,0C1400,0,1360,0,1320,0C1280,0,1240,0,1200,0C1160,0,1120,0,1080,0C1040,0,1000,0,960,0C920,0,880,0,840,0C800,0,760,0,720,0C680,0,640,0,600,0C560,0,520,0,480,0C440,0,400,0,360,0C320,0,280,0,240,0C200,0,160,0,120,0C80,0,40,0,20,0L0,0Z"></path></svg>